<?xml version="1.0" encoding="UTF-8" standalone="no"?>
<!-- Generator: Adobe Illustrator 16.0.3, SVG Export Plug-In . SVG Version: 6.00 Build 0)  -->

<svg
   xmlns:dc="http://purl.org/dc/elements/1.1/"
   xmlns:cc="http://creativecommons.org/ns#"
   xmlns:rdf="http://www.w3.org/1999/02/22-rdf-syntax-ns#"
   xmlns:svg="http://www.w3.org/2000/svg"
   xmlns="http://www.w3.org/2000/svg"
   xmlns:sodipodi="http://sodipodi.sourceforge.net/DTD/sodipodi-0.dtd"
   xmlns:inkscape="http://www.inkscape.org/namespaces/inkscape"
   version="1.1"
   id="_x30_"
   x="0px"
   y="0px"
   width="37.061px"
   height="37.061px"
   viewBox="0 0 37.061 37.061"
   enable-background="new 0 0 37.061 37.061"
   xml:space="preserve"
   inkscape:version="0.91 r13725"
   sodipodi:docname="button_b.svg"><metadata
   id="metadata17"><rdf:RDF><cc:Work
       rdf:about=""><dc:format>image/svg+xml</dc:format><dc:type
         rdf:resource="http://purl.org/dc/dcmitype/StillImage" /><dc:title></dc:title></cc:Work></rdf:RDF></metadata><defs
   id="defs15" /><sodipodi:namedview
   pagecolor="#ffffff"
   bordercolor="#666666"
   borderopacity="1"
   objecttolerance="10"
   gridtolerance="10"
   guidetolerance="10"
   inkscape:pageopacity="0"
   inkscape:pageshadow="2"
   inkscape:window-width="1273"
   inkscape:window-height="749"
   id="namedview13"
   showgrid="false"
   inkscape:zoom="5.6568543"
   inkscape:cx="-18.280898"
   inkscape:cy="12.742477"
   inkscape:window-x="89"
   inkscape:window-y="-4"
   inkscape:window-maximized="1"
   inkscape:current-layer="_x30_" />

<g
   opacity="0"
   id="g9">
	<path
   fill="#FFFFFF"
   d="M36.961,0.1v36.861H0.1V0.1H36.961 M37.061,0H0v37.06h37.061V0L37.061,0z"
   id="path11" />
</g>
<path
   style="fill:#ffffff"
   d="M 18.038538,34.024025 C 15.569947,33.951814 13.133334,33.276583 10.975936,32.066846 10.109559,31.581034 9.2777812,31.006171 8.5487394,30.389348 8.0458001,29.963825 7.3146247,29.250087 6.9189177,28.798395 5.9705765,27.715881 5.2528723,26.645707 4.6254478,25.378588 3.2379673,22.576489 2.7397502,19.413975 3.192513,16.282801 3.3908127,14.911419 3.7667917,13.593536 4.3231382,12.319732 5.3045353,10.072735 6.8270096,8.0686851 8.7348139,6.5125934 11.065818,4.6113209 13.831999,3.4495461 16.8213,3.1163311 c 0.588469,-0.065596 0.976622,-0.085014 1.705683,-0.085327 0.797641,-3.435e-4 1.286293,0.028362 1.977041,0.1161388 2.402651,0.305317 4.688913,1.169692 6.714188,2.5384566 0.836746,0.565507 1.506549,1.1214379 2.264749,1.8797214 0.589171,0.5892348 0.979568,1.034991 1.43027,1.6330802 1.743448,2.3135892 2.793599,5.0348432 3.056953,7.9214682 0.07987,0.875521 0.07975,1.914885 -3.42e-4,2.814944 -0.251693,2.828519 -1.290277,5.546122 -2.996194,7.839966 -1.107828,1.489632 -2.486442,2.780908 -4.036555,3.780837 -2.661796,1.717041 -5.707004,2.561764 -8.898555,2.468409 z m 1.44983,-5.13885 c 1.278098,-0.133499 2.341197,-0.422114 3.442378,-0.934551 1.075084,-0.500294 2.016729,-1.155369 2.882319,-2.005147 1.918837,-1.883786 3.031788,-4.41171 3.108394,-7.060312 0.0249,-0.860985 -0.03546,-1.613362 -0.192658,-2.401178 C 27.888095,12.270585 24.517622,8.9923278 20.286937,8.2730961 19.674152,8.1689204 19.226268,8.1333136 18.526983,8.1331802 c -0.564787,-1.085e-4 -0.784554,0.012043 -1.263756,0.069875 -1.786093,0.2155506 -3.479639,0.8933383 -4.930974,1.9734647 -0.669462,0.498234 -1.31595,1.115983 -1.853379,1.770988 -1.9867439,2.421391 -2.7682333,5.631932 -2.123287,8.722957 0.6049482,2.899325 2.444312,5.41769 5.038842,6.898926 0.815709,0.465693 1.707044,0.822308 2.623645,1.049697 0.623077,0.154572 1.10464,0.228659 1.91192,0.294141 0.18993,0.01541 1.340616,-0.0053 1.558374,-0.02806 z m -1.353026,-2.894816 c -1.325694,-0.07539 -2.57819,-0.485513 -3.678738,-1.204582 -0.945693,-0.617889 -1.749223,-1.452584 -2.333263,-2.423754 -0.906627,-1.507586 -1.249389,-3.312282 -0.960286,-5.056042 0.21626,-1.304386 0.75993,-2.49672 1.614242,-3.540225 0.335194,-0.409425 0.867373,-0.913212 1.314911,-1.24476 0.651458,-0.482618 1.383654,-0.859112 2.15351,-1.107333 1.12646,-0.3632 2.351086,-0.452246 3.521762,-0.256079 2.121881,0.355559 3.982691,1.610429 5.127218,3.457634 0.190795,0.307931 0.446006,0.81767 0.58233,1.163094 0.655978,1.662168 0.699359,3.469848 0.123944,5.164607 -0.699813,2.061137 -2.314556,3.746731 -4.35265,4.543634 -0.992104,0.387916 -2.073465,0.562924 -3.11298,0.503806 z"
   id="path4169"
   inkscape:connector-curvature="0" /></svg>