<?xml version="1.0" encoding="UTF-8" standalone="no"?>
<!-- Generator: Adobe Illustrator 16.0.3, SVG Export Plug-In . SVG Version: 6.00 Build 0)  -->

<svg
   xmlns:dc="http://purl.org/dc/elements/1.1/"
   xmlns:cc="http://creativecommons.org/ns#"
   xmlns:rdf="http://www.w3.org/1999/02/22-rdf-syntax-ns#"
   xmlns:svg="http://www.w3.org/2000/svg"
   xmlns="http://www.w3.org/2000/svg"
   xmlns:sodipodi="http://sodipodi.sourceforge.net/DTD/sodipodi-0.dtd"
   xmlns:inkscape="http://www.inkscape.org/namespaces/inkscape"
   version="1.1"
   id="_x30_"
   x="0px"
   y="0px"
   width="37.061px"
   height="37.061px"
   viewBox="0 0 37.061 37.061"
   enable-background="new 0 0 37.061 37.061"
   xml:space="preserve"
   inkscape:version="0.91 r13725"
   sodipodi:docname="button_start.svg"><metadata
   id="metadata19"><rdf:RDF><cc:Work
       rdf:about=""><dc:format>image/svg+xml</dc:format><dc:type
         rdf:resource="http://purl.org/dc/dcmitype/StillImage" /><dc:title></dc:title></cc:Work></rdf:RDF></metadata><defs
   id="defs17" /><sodipodi:namedview
   pagecolor="#ffffff"
   bordercolor="#666666"
   borderopacity="1"
   objecttolerance="10"
   gridtolerance="10"
   guidetolerance="10"
   inkscape:pageopacity="0"
   inkscape:pageshadow="2"
   inkscape:window-width="1273"
   inkscape:window-height="749"
   id="namedview15"
   showgrid="false"
   inkscape:zoom="8"
   inkscape:cx="36.883191"
   inkscape:cy="10.121531"
   inkscape:window-x="89"
   inkscape:window-y="-4"
   inkscape:window-maximized="1"
   inkscape:current-layer="_x30_" />


<g
   opacity="0"
   id="g11">
	<path
   fill="#FFFFFF"
   d="M36.961,0.1v36.861H0.1V0.1H36.961 M37.061,0H0v37.06h37.061V0L37.061,0z"
   id="path13" />
</g>
<path
   style="fill:#ffffff"
   d="M 8.5655967,29.419222 C 7.8476493,29.363407 7.3830361,29.198278 7.0689859,28.887303 6.8645352,28.684857 6.7467941,28.479763 6.6753105,28.201544 6.6489677,28.098955 6.6136734,27.869825 6.6132472,27.798341 L 6.613,27.759059 l 0.5130533,0 0.5130534,0 0.00895,0.08139 c 0.054646,0.497292 0.568808,0.796844 1.2702164,0.740001 C 9.2314347,28.55507 9.437437,28.48249 9.5871474,28.344793 9.7508052,28.194267 9.807992,27.994308 9.7559203,27.754665 9.7334173,27.651189 9.6963327,27.588672 9.6104928,27.509501 9.490501,27.398856 9.2878065,27.31953 8.9313521,27.243711 8.467472,27.145042 7.9971298,27.024031 7.7783824,26.947068 7.6188508,26.890937 7.4029509,26.788027 7.2902992,26.714407 6.9399403,26.485454 6.778448,26.211497 6.7366149,25.775135 6.6658559,25.037241 7.0346038,24.48433 7.7620482,24.237452 c 0.2569912,-0.08722 0.495193,-0.1213 0.8469672,-0.121189 0.4583899,1.44e-4 0.7730455,0.06304 1.1095766,0.221796 0.551161,0.26001 0.871187,0.719756 0.927803,1.332876 l 0.006,0.0695 -0.507171,0 -0.5071624,0 -0.00511,-0.0272 c -0.044079,-0.23013 -0.1039262,-0.363621 -0.210687,-0.470237 -0.1853968,-0.185146 -0.4496431,-0.260006 -0.8755606,-0.24804 -0.2388412,0.0067 -0.3511858,0.02545 -0.4897029,0.08168 -0.2181591,0.08857 -0.3311517,0.24026 -0.3492251,0.468851 -0.01364,0.171938 0.054902,0.317537 0.197639,0.420098 0.158807,0.114103 0.3077246,0.169018 0.7342731,0.270761 0.8390217,0.200132 1.2105913,0.315826 1.5207711,0.47352 0.296983,0.150983 0.461732,0.338515 0.567299,0.645739 0.05473,0.159248 0.07792,0.318827 0.07894,0.542461 0.0017,0.43363 -0.124757,0.732263 -0.434016,1.022664 -0.289055,0.271428 -0.7159697,0.444689 -1.2167469,0.493818 -0.1165817,0.01144 -0.467921,0.01422 -0.5906664,0.0047 z m 4.7296453,-2.216193 0,-2.054886 -0.768646,0 -0.768646,0 0,-0.435152 0,-0.435153 2.076586,0 2.076578,0 0,0.435153 0,0.435152 -0.774844,0 -0.774844,0 0,2.054886 0,2.054886 -0.533088,0 -0.533096,0 0,-2.054886 z m 2.432906,2.033732 c 0.0034,-0.01164 0.319497,-0.877858 0.702797,-1.924944 0.383309,-1.047085 0.789883,-2.158084 0.903515,-2.468885 l 0.206607,-0.565094 0.620036,1.7e-4 0.620036,1.68e-4 0.892619,2.47202 c 0.490939,1.359612 0.894427,2.480052 0.896627,2.489867 0.0034,0.01553 -0.07068,0.01785 -0.57285,0.01785 l -0.576855,0 -0.04919,-0.154116 c -0.02703,-0.08477 -0.08898,-0.281943 -0.137639,-0.438175 -0.04869,-0.156232 -0.09974,-0.318088 -0.113548,-0.35968 l -0.02507,-0.07562 -0.94418,0.0031 -0.944187,0.0031 -0.179107,0.5107 -0.179113,0.5107 -0.563182,0 c -0.530333,0 -0.562831,-0.0012 -0.55729,-0.02115 z m 3.052922,-1.879615 c -0.0185,-0.05085 -0.626003,-1.944982 -0.626003,-1.951719 0,-0.04289 -0.06223,0.135248 -0.309396,0.88499 -0.157774,0.478668 -0.302932,0.9179 -0.322583,0.976072 l -0.03572,0.105765 0.649601,0 c 0.51434,0 0.648459,-0.0032 0.644112,-0.01511 z m 3.105643,-0.589747 0,-2.490514 1.42881,0.0041 c 1.39552,0.004 1.431419,0.0047 1.540397,0.02926 0.749993,0.169083 1.186584,0.686885 1.185501,1.406021 -1.61e-4,0.108035 -0.0077,0.212875 -0.01961,0.273301 -0.07963,0.402827 -0.306761,0.698054 -0.652943,0.848771 l -0.07622,0.0332 0.08873,0.03394 c 0.262847,0.100548 0.407546,0.257805 0.482303,0.524159 l 0.03308,0.117899 0.0042,0.855195 0.0043,0.855195 -0.520625,0 -0.520631,0 -0.0042,-0.746407 c -0.0034,-0.684186 -0.006,-0.751949 -0.02677,-0.812888 -0.07153,-0.209805 -0.162473,-0.295101 -0.377332,-0.353853 -0.09136,-0.02499 -0.122968,-0.02616 -0.811034,-0.03011 l -0.715953,-0.0041 0,0.973681 0,0.973681 -0.520701,0 -0.520692,0 0,-2.490516 z m 2.615872,-0.319971 c 0.167972,-0.0259 0.301058,-0.09083 0.383029,-0.186864 0.143247,-0.167835 0.193264,-0.38721 0.142813,-0.626407 -0.03682,-0.174767 -0.153539,-0.340282 -0.285193,-0.404586 -0.177774,-0.08683 -0.256796,-0.09352 -1.105049,-0.09352 l -0.710079,0 0,0.664816 0,0.664817 0.728348,0 c 0.587273,0 0.75117,-0.0036 0.846131,-0.01821 z m 4.289543,0.755601 0,-2.054886 -0.768647,0 -0.768646,0 0,-0.435152 0,-0.435153 2.076578,0 2.076587,0 0,0.435153 0,0.435152 -0.774844,0 -0.774845,0 0,2.054886 0,2.054886 -0.533096,0 -0.533087,0 0,-2.054886 z M 10.01063,23.225365 C 9.7270404,23.191435 9.47727,23.070424 9.2836719,22.873154 9.1267149,22.713231 9.0280531,22.545704 8.9640973,22.330529 c -0.067775,-0.227905 -0.063768,0.190751 -0.063768,-6.731563 0,-6.1461489 8.525e-4,-6.4291889 0.022422,-6.531806 0.099097,-0.4748694 0.3617571,-0.8177261 0.745927,-0.9736575 0.1705205,-0.069214 0.2880314,-0.090379 0.5024393,-0.090502 0.198534,-1.13e-4 0.306676,0.015128 0.483497,0.068134 0.04433,0.013283 1.012262,0.3940996 2.150968,0.8462514 11.297328,4.4858601 14.732417,5.8523531 14.821727,5.8961321 0.158619,0.07776 0.280333,0.162339 0.390018,0.271014 0.148422,0.14707 0.218535,0.278815 0.24052,0.451969 0.04323,0.340506 -0.199301,0.674862 -0.643445,0.887066 -0.06658,0.0318 -9.841594,3.918903 -13.624851,5.418009 -0.300172,0.11894 -2.089512,0.830179 -2.541491,1.010208 -0.676464,0.269444 -0.818033,0.320801 -0.960812,0.348558 -0.150811,0.02932 -0.35226,0.0399 -0.476583,0.02502 z"
   id="path4182"
   inkscape:connector-curvature="0" /></svg>