<?xml version="1.0" encoding="UTF-8" standalone="no"?>
<!-- Generator: Adobe Illustrator 16.0.3, SVG Export Plug-In . SVG Version: 6.00 Build 0)  -->

<svg
   xmlns:dc="http://purl.org/dc/elements/1.1/"
   xmlns:cc="http://creativecommons.org/ns#"
   xmlns:rdf="http://www.w3.org/1999/02/22-rdf-syntax-ns#"
   xmlns:svg="http://www.w3.org/2000/svg"
   xmlns="http://www.w3.org/2000/svg"
   xmlns:sodipodi="http://sodipodi.sourceforge.net/DTD/sodipodi-0.dtd"
   xmlns:inkscape="http://www.inkscape.org/namespaces/inkscape"
   version="1.1"
   id="_x30_"
   x="0px"
   y="0px"
   width="37.061px"
   height="37.061px"
   viewBox="0 0 37.061 37.061"
   enable-background="new 0 0 37.061 37.061"
   xml:space="preserve"
   inkscape:version="0.91 r13725"
   sodipodi:docname="button_select.svg"><metadata
   id="metadata19"><rdf:RDF><cc:Work
       rdf:about=""><dc:format>image/svg+xml</dc:format><dc:type
         rdf:resource="http://purl.org/dc/dcmitype/StillImage" /><dc:title></dc:title></cc:Work></rdf:RDF></metadata><defs
   id="defs17" /><sodipodi:namedview
   pagecolor="#ffffff"
   bordercolor="#666666"
   borderopacity="1"
   objecttolerance="10"
   gridtolerance="10"
   guidetolerance="10"
   inkscape:pageopacity="0"
   inkscape:pageshadow="2"
   inkscape:window-width="1273"
   inkscape:window-height="749"
   id="namedview15"
   showgrid="false"
   inkscape:zoom="11.313709"
   inkscape:cx="22.842147"
   inkscape:cy="15.738842"
   inkscape:window-x="89"
   inkscape:window-y="-4"
   inkscape:window-maximized="1"
   inkscape:current-layer="_x30_" />


<g
   opacity="0"
   id="g11">
	<path
   fill="#FFFFFF"
   d="M36.961,0.1v36.861H0.1V0.1H36.961 M37.061,0H0v37.06h37.061V0L37.061,0z"
   id="path13" />
</g>
<path
   style="fill:#ffffff"
   d="M 7.022227,29.412228 C 6.212237,29.334688 5.675215,28.99899 5.474702,28.444844 5.429502,28.319919 5.386402,28.120259 5.372331,27.970606 l -0.0092,-0.09803 0.47462,0 0.47462,0 0,0.04448 c 0,0.0592 0.03502,0.191734 0.06968,0.263722 0.164183,0.340968 0.671114,0.525719 1.214848,0.442751 0.3154843,-0.04814 0.5244713,-0.177093 0.6179663,-0.381314 0.07083,-0.154707 0.05384,-0.407288 -0.0362,-0.53815 C 8.0713293,27.548057 7.8837013,27.464394 7.402041,27.357767 6.86079,27.237949 6.494873,27.134172 6.276625,27.038591 5.995381,26.915423 5.773291,26.743749 5.64961,26.553916 5.45792,26.259699 5.416102,25.722941 5.55518,25.341859 c 0.06449,-0.176712 0.137433,-0.286957 0.28928,-0.437224 0.315964,-0.312677 0.762362,-0.466487 1.353877,-0.466487 0.8034813,0 1.4217413,0.317214 1.6998033,0.872128 0.08875,0.177112 0.159063,0.440885 0.159063,0.596711 l 0,0.05907 -0.459469,0 -0.459468,0 -0.0062,-0.03042 c -0.03023,-0.147305 -0.04372,-0.191691 -0.08434,-0.277594 C 7.9273653,25.403529 7.688105,25.282972 7.271299,25.266821 6.757472,25.246911 6.46065,25.386006 6.385564,25.68189 c -0.04462,0.175816 -0.008,0.329912 0.10584,0.444904 0.130562,0.131931 0.290728,0.196573 0.805878,0.325249 0.7305973,0.182493 0.9843153,0.262647 1.2664373,0.400092 0.262491,0.127881 0.402008,0.258209 0.508009,0.474555 0.09041,0.184522 0.12293,0.337501 0.130416,0.613488 0.008,0.294861 -0.01692,0.439099 -0.108482,0.628082 -0.222141,0.458468 -0.688835,0.755697 -1.318077,0.839459 -0.1586123,0.02111 -0.5550293,0.02348 -0.7533003,0.0045 z m 18.524254,0.0069 c -0.670819,-0.09869 -1.125121,-0.367529 -1.459514,-0.863686 -0.210215,-0.311907 -0.356535,-0.745787 -0.399763,-1.185402 -0.0218,-0.221736 -0.01081,-0.762152 0.01948,-0.957732 0.09157,-0.59119 0.306524,-1.057516 0.642376,-1.393561 0.384331,-0.384551 0.886698,-0.579986 1.492041,-0.580446 0.917308,-7.03e-4 1.628011,0.460857 1.900957,1.234546 0.04237,0.120098 0.09629,0.355546 0.09629,0.420453 l 0,0.03506 -0.485597,0 -0.485596,0 -0.02908,-0.09127 c -0.03597,-0.112861 -0.10834,-0.25834 -0.170964,-0.343653 -0.122392,-0.166729 -0.3296,-0.30884 -0.539212,-0.369812 -0.251643,-0.0732 -0.60278,-0.0379 -0.834713,0.0839 -0.430159,0.22591 -0.651632,0.801372 -0.628565,1.633219 0.0297,1.071155 0.465701,1.6007 1.262562,1.533466 0.475054,-0.04008 0.794482,-0.33282 0.924176,-0.846954 l 0.0145,-0.05747 0.487435,0 0.487437,0 -0.0095,0.05747 c -0.0052,0.03161 -0.03055,0.127391 -0.05631,0.212855 -0.122417,0.406067 -0.290785,0.697545 -0.550699,0.953361 -0.252322,0.248343 -0.561629,0.41255 -0.934093,0.495897 -0.09646,0.02158 -0.181983,0.02811 -0.412402,0.03148 -0.15989,0.0023 -0.308963,0.0016 -0.331273,-0.0017 z M 10.263933,26.9295 l 0.0034,-2.335814 1.713831,-0.0034 1.713832,-0.0034 0,0.412454 0,0.412453 -1.244131,0 -1.244131,0 0.0035,0.49691 0.0035,0.496909 1.145935,0.0035 1.145935,0.0035 0,0.412324 0,0.412325 -1.142555,0 -1.142554,0 0,0.601701 0,0.6017 1.29805,0 1.29805,0 0,0.412401 0,0.412401 -1.778096,0 -1.778097,0 0.0034,-2.335813 z m 4.556696,0 0.0034,-2.335814 0.486768,0 0.486769,0 0.0034,1.909891 0.0034,1.909891 1.156029,0 1.156029,0 0,0.425923 0,0.425922 -1.649643,0 -1.649644,0 0.0034,-2.335813 z m 4.340355,0 0.0034,-2.335814 1.717212,0 1.717212,0 0.0036,0.409021 0.0036,0.409021 -1.244162,0 -1.244163,0 0,0.50029 0,0.50029 1.142554,0 1.142554,0 0,0.412401 0,0.412401 -1.142554,0 -1.142554,0 0,0.601701 0,0.6017 1.29805,0 1.29805,0 0,0.412401 0,0.412401 -1.778096,0 -1.778098,0 0.0034,-2.335813 z m 10.867826,0.409021 0,-1.926793 -0.71007,0 -0.710068,0 0.0036,-0.409021 0.0036,-0.409021 1.89637,-0.0034 1.89637,-0.0034 0,0.412447 0,0.412449 -0.703111,0 -0.70311,0 0,1.926793 0,1.926792 -0.486769,0 -0.486769,0 0,-1.926792 z M 7.9213973,22.174044 C 6.97031,21.995152 5.90855,20.946668 5.69526,19.975743 5.67098,19.865224 5.67009,19.692958 5.67009,15.101658 c 0,-4.547346 0.0011,-4.76464 0.02455,-4.874448 C 5.893893,9.2944741 6.883092,8.2789721 7.8259283,8.0392531 l 0.142791,-0.0363 10.9252527,0 10.925254,0 0.118075,0.03011 c 0.461583,0.117719 0.913038,0.392245 1.328857,0.808064 0.441923,0.441923 0.747058,0.963561 0.824962,1.4102989 0.01736,0.09956 0.01998,0.733043 0.01998,4.843473 0,4.204785 -0.0023,4.742241 -0.0209,4.849015 -0.162303,0.932551 -1.245583,2.028847 -2.196178,2.222567 -0.13265,0.02703 -0.171828,0.02712 -11.008929,0.02561 -8.508464,-0.0012 -10.8949359,-0.0051 -10.9636939,-0.01805 z"
   id="path4158"
   inkscape:connector-curvature="0" /></svg>