<?xml version="1.0" encoding="UTF-8" standalone="no"?>
<!-- Generator: Adobe Illustrator 16.0.3, SVG Export Plug-In . SVG Version: 6.00 Build 0)  -->

<svg
   xmlns:dc="http://purl.org/dc/elements/1.1/"
   xmlns:cc="http://creativecommons.org/ns#"
   xmlns:rdf="http://www.w3.org/1999/02/22-rdf-syntax-ns#"
   xmlns:svg="http://www.w3.org/2000/svg"
   xmlns="http://www.w3.org/2000/svg"
   xmlns:sodipodi="http://sodipodi.sourceforge.net/DTD/sodipodi-0.dtd"
   xmlns:inkscape="http://www.inkscape.org/namespaces/inkscape"
   version="1.1"
   id="_x30_"
   x="0px"
   y="0px"
   width="37.061px"
   height="37.061px"
   viewBox="0 0 37.061 37.061"
   enable-background="new 0 0 37.061 37.061"
   xml:space="preserve"
   inkscape:version="0.91 r13725"
   sodipodi:docname="button_y.svg"><metadata
   id="metadata17"><rdf:RDF><cc:Work
       rdf:about=""><dc:format>image/svg+xml</dc:format><dc:type
         rdf:resource="http://purl.org/dc/dcmitype/StillImage" /><dc:title></dc:title></cc:Work></rdf:RDF></metadata><defs
   id="defs15" /><sodipodi:namedview
   pagecolor="#ffffff"
   bordercolor="#666666"
   borderopacity="1"
   objecttolerance="10"
   gridtolerance="10"
   guidetolerance="10"
   inkscape:pageopacity="0"
   inkscape:pageshadow="2"
   inkscape:window-width="1273"
   inkscape:window-height="749"
   id="namedview13"
   showgrid="false"
   inkscape:zoom="6.6533227"
   inkscape:cx="8.7983548"
   inkscape:cy="-2.1448741"
   inkscape:window-x="89"
   inkscape:window-y="-4"
   inkscape:window-maximized="1"
   inkscape:current-layer="_x30_" />

<g
   id="g9"
   style="opacity:0">
	<path
   d="m 36.961,0.1 0,36.861 -36.861,0 0,-36.861 36.861,0 M 37.061,0 0,0 l 0,37.06 37.061,0 0,-37.06 0,0 z"
   id="path11"
   inkscape:connector-curvature="0"
   style="fill:#ffffff" />
</g>
<path
   style="fill:#ffffff"
   d="M 18.20895,34.028407 C 16.632658,34.000225 15.008297,33.714483 13.510328,33.201866 11.53679,32.526508 9.7685678,31.4911 8.1791715,30.080124 7.8871709,29.820904 7.1574469,29.0871 6.9052322,28.799063 6.1340411,27.91834 5.5204854,27.052336 4.9593097,26.052488 4.7653484,25.706906 4.4168985,24.996623 4.2570613,24.621016 3.6042526,23.086965 3.2243566,21.559602 3.0655608,19.830601 3.0318355,19.463372 3.0173832,18.008079 3.0432366,17.582672 3.3374147,12.742761 5.8757993,8.3336191 9.9244894,5.6300276 12.850781,3.6759398 16.326649,2.7875364 19.86894,3.0883072 c 2.583422,0.2193545 5.068087,1.08977 7.237265,2.535323 0.904889,0.6030238 1.586129,1.1627505 2.374399,1.9508779 0.590666,0.5905606 0.980777,1.0356136 1.431067,1.632612 1.74432,2.3126379 2.794997,5.0327749 3.058481,7.9182139 0.07992,0.875162 0.07979,1.914101 -3.41e-4,2.813788 -0.251819,2.827359 -1.290923,5.543845 -2.997693,7.836746 -1.108383,1.489021 -2.487687,2.779766 -4.038573,3.779284 -2.609044,1.681479 -5.599202,2.529129 -8.724598,2.473255 z m 10.948143,-8.922923 c -0.04308,-0.07112 -0.987688,-1.707327 -1.492436,-2.585119 -0.232891,-0.405015 -0.704131,-1.221246 -1.047199,-1.813847 -0.34307,-0.5926 -0.957415,-1.65649 -1.365215,-2.364201 C 24.844444,17.634607 24.30694,16.703267 24.05779,16.272672 23.80864,15.842078 23.203201,14.79214 22.712369,13.939476 22.221538,13.086813 21.534078,11.893861 21.18468,11.288471 20.835283,10.68308 20.353085,9.8459201 20.113128,9.4281152 19.159082,7.7669519 18.530902,6.6854047 18.517652,6.6811557 c -0.0076,-0.00246 -0.05283,0.063472 -0.100372,0.1465115 -0.149879,0.2617935 -1.141209,1.9824522 -1.810819,3.1430517 -0.3542,0.6139171 -0.895303,1.5522341 -1.20245,2.0851481 -0.307148,0.532914 -0.886606,1.537506 -1.287686,2.232426 -0.401079,0.69492 -1.191661,2.065769 -1.756847,3.046332 -0.565186,0.980562 -1.27358,2.208396 -1.57421,2.728521 -0.300629,0.520124 -0.749216,1.297984 -0.9968576,1.72858 -0.2476431,0.430594 -0.7843334,1.360262 -1.1926447,2.065926 -0.4083123,0.705665 -0.7423852,1.286444 -0.7423852,1.290621 0,0.0042 4.8002015,0.0076 10.6671155,0.0076 l 10.667116,0 -0.03052,-0.05039 z M 12.59092,22.403645 c 0.005,-0.01304 0.346882,-0.60777 0.759725,-1.321627 0.412843,-0.713859 1.017792,-1.761852 1.344333,-2.328873 0.32654,-0.56702 0.941058,-1.63091 1.365597,-2.3642 0.424538,-0.73329 1.140938,-1.972341 1.592,-2.753446 0.451061,-0.781105 0.830634,-1.435674 0.843494,-1.454598 0.02546,-0.03746 0.04012,-0.01277 1.556337,2.61899 0.272636,0.473227 0.782068,1.355733 1.132069,1.961124 1.007946,1.743422 3.120893,5.403946 3.264039,5.654705 0.0037,0.0064 -2.664863,0.01163 -5.93003,0.01163 -5.320489,0 -5.935721,-0.0024 -5.927564,-0.0237 z"
   id="path4219"
   inkscape:connector-curvature="0" /></svg>