<?xml version="1.0" encoding="UTF-8" standalone="no"?>
<!-- Generator: Adobe Illustrator 16.0.3, SVG Export Plug-In . SVG Version: 6.00 Build 0)  -->

<svg
   xmlns:dc="http://purl.org/dc/elements/1.1/"
   xmlns:cc="http://creativecommons.org/ns#"
   xmlns:rdf="http://www.w3.org/1999/02/22-rdf-syntax-ns#"
   xmlns:svg="http://www.w3.org/2000/svg"
   xmlns="http://www.w3.org/2000/svg"
   xmlns:sodipodi="http://sodipodi.sourceforge.net/DTD/sodipodi-0.dtd"
   xmlns:inkscape="http://www.inkscape.org/namespaces/inkscape"
   version="1.1"
   id="_x30_"
   x="0px"
   y="0px"
   width="37.061px"
   height="37.061px"
   viewBox="0 0 37.061 37.061"
   enable-background="new 0 0 37.061 37.061"
   xml:space="preserve"
   inkscape:version="0.91 r13725"
   sodipodi:docname="button_r.svg"><metadata
   id="metadata13"><rdf:RDF><cc:Work
       rdf:about=""><dc:format>image/svg+xml</dc:format><dc:type
         rdf:resource="http://purl.org/dc/dcmitype/StillImage" /><dc:title></dc:title></cc:Work></rdf:RDF></metadata><defs
   id="defs11" /><sodipodi:namedview
   pagecolor="#ffffff"
   bordercolor="#666666"
   borderopacity="1"
   objecttolerance="10"
   gridtolerance="10"
   guidetolerance="10"
   inkscape:pageopacity="0"
   inkscape:pageshadow="2"
   inkscape:window-width="1273"
   inkscape:window-height="749"
   id="namedview9"
   showgrid="false"
   inkscape:zoom="8"
   inkscape:cx="25.536377"
   inkscape:cy="13.302997"
   inkscape:window-x="89"
   inkscape:window-y="-4"
   inkscape:window-maximized="1"
   inkscape:current-layer="_x30_" />


<path
   style="fill:#ffffff"
   d="M 4.4995774,30.211035 C 3.0177307,30.060996 1.7545643,29.277585 0.94760697,28.008113 0.61431534,27.483798 0.36104665,26.819319 0.26541505,26.218336 c -0.0687335,-0.431798 -0.0692318,-0.498081 -0.0628499,-7.953704 0.006922,-8.12638 -0.00623,-7.349803 0.13523814,-7.938849 C 0.5434361,9.4699993 0.96320179,8.7097988 1.5785706,8.0787405 2.3657593,7.2714762 3.3694066,6.7886955 4.4812277,6.6824809 4.6300465,6.668263 8.8444195,6.664217 18.724958,6.6687954 c 13.043137,0.00603 14.044673,0.00874 14.206968,0.038168 1.012805,0.1836826 1.780197,0.5588588 2.487425,1.2161049 0.792609,0.7365872 1.309965,1.7267015 1.493926,2.8590527 0.03218,0.198026 0.03399,0.53361 0.03987,7.482513 0.0062,7.439781 0.0055,7.533531 -0.0625,7.953703 -0.155989,0.962524 -0.621653,1.8809 -1.313411,2.590293 -0.593725,0.608869 -1.358895,1.059732 -2.143973,1.263297 -0.119075,0.03088 -0.319883,0.07545 -0.446242,0.09906 l -0.229734,0.04292 -14.096697,0.0018 c -7.753177,9.94e-4 -14.1256442,-0.0011 -14.1610214,-0.0047 z m 12.2036616,-7.377003 0,-2.639822 1.557619,0.0076 c 1.491717,0.0073 1.566175,0.0093 1.759792,0.04738 0.576081,0.113328 0.792165,0.295672 0.909919,0.767837 0.06471,0.25937 0.07335,0.559125 0.07335,2.537188 l 0,1.91982 1.686269,-0.0048 1.686275,-0.0048 0.0056,-2.110936 c 0.0035,-1.390867 -0.0014,-2.222825 -0.01467,-2.438946 -0.04403,-0.713586 -0.173391,-1.194452 -0.432204,-1.606849 -0.104346,-0.16627 -0.375709,-0.445889 -0.546019,-0.56263 -0.06791,-0.04655 -0.123741,-0.0896 -0.12406,-0.09566 -3.11e-4,-0.006 0.07178,-0.06679 0.160233,-0.13494 0.15799,-0.121738 0.398342,-0.358855 0.527233,-0.520137 0.265881,-0.332708 0.529491,-0.877633 0.644233,-1.331747 0.100761,-0.398752 0.126828,-0.623858 0.127694,-1.102586 6.92e-4,-0.448632 -0.01371,-0.618412 -0.08173,-0.955625 -0.37015,-1.834838 -1.807891,-3.091415 -3.758324,-3.284751 -0.111156,-0.01102 -1.638299,-0.01841 -3.864184,-0.0187 l -3.680398,-4.86e-4 0,7.074146 c 0,3.890781 0.0056,7.079802 0.01225,7.086713 0.0069,0.0069 0.763495,0.01256 1.681679,0.01256 l 1.669427,0 0,-2.639822 z m 0.01343,-5.626817 c -0.0074,-0.0076 -0.01343,-0.656932 -0.01343,-1.443036 l 0,-1.429279 1.677083,3.26e-4 c 1.722193,3.35e-4 1.91005,0.007 2.173314,0.07654 0.377674,0.09982 0.613874,0.298064 0.773026,0.64877 0.09549,0.210441 0.12008,0.330696 0.131258,0.64203 0.01529,0.425558 -0.04229,0.669922 -0.223858,0.949981 -0.187532,0.289274 -0.424811,0.430916 -0.873406,0.521357 -0.137412,0.0277 -0.365319,0.03243 -1.893403,0.03928 -0.955451,0.0043 -1.743221,0.0016 -1.7506,-0.006 z"
   id="path4176"
   inkscape:connector-curvature="0" /></svg>