<?xml version="1.0" encoding="UTF-8" standalone="no"?>
<!-- Generator: Adobe Illustrator 16.0.3, SVG Export Plug-In . SVG Version: 6.00 Build 0)  -->

<svg
   xmlns:dc="http://purl.org/dc/elements/1.1/"
   xmlns:cc="http://creativecommons.org/ns#"
   xmlns:rdf="http://www.w3.org/1999/02/22-rdf-syntax-ns#"
   xmlns:svg="http://www.w3.org/2000/svg"
   xmlns="http://www.w3.org/2000/svg"
   xmlns:sodipodi="http://sodipodi.sourceforge.net/DTD/sodipodi-0.dtd"
   xmlns:inkscape="http://www.inkscape.org/namespaces/inkscape"
   version="1.1"
   id="_x30_"
   x="0px"
   y="0px"
   width="37.061px"
   height="37.061px"
   viewBox="0 0 37.061 37.061"
   enable-background="new 0 0 37.061 37.061"
   xml:space="preserve"
   inkscape:version="0.91 r13725"
   sodipodi:docname="button_x.svg"><metadata
   id="metadata17"><rdf:RDF><cc:Work
       rdf:about=""><dc:format>image/svg+xml</dc:format><dc:type
         rdf:resource="http://purl.org/dc/dcmitype/StillImage" /><dc:title></dc:title></cc:Work></rdf:RDF></metadata><defs
   id="defs15" /><sodipodi:namedview
   pagecolor="#ffffff"
   bordercolor="#666666"
   borderopacity="1"
   objecttolerance="10"
   gridtolerance="10"
   guidetolerance="10"
   inkscape:pageopacity="0"
   inkscape:pageshadow="2"
   inkscape:window-width="1273"
   inkscape:window-height="749"
   id="namedview13"
   showgrid="false"
   inkscape:zoom="2.8284271"
   inkscape:cx="84.641296"
   inkscape:cy="-24.063333"
   inkscape:window-x="89"
   inkscape:window-y="-4"
   inkscape:window-maximized="1"
   inkscape:current-layer="_x30_" />

<g
   id="g9"
   style="opacity:0">
	<path
   d="m 36.961,0.1 0,36.861 -36.861,0 0,-36.861 36.861,0 M 37.061,0 0,0 l 0,37.06 37.061,0 0,-37.06 0,0 z"
   id="path11"
   inkscape:connector-curvature="0"
   style="fill:#ffffff" />
</g>
<path
   style="fill:#ffffff"
   d="M 17.960851,34.027178 C 16.697917,33.963271 15.820567,33.837309 14.720239,33.561932 11.779389,32.825934 9.0588791,31.184177 7.0137953,28.911291 6.0415866,27.830788 5.2957108,26.734925 4.6442801,25.429926 3.8845209,23.907913 3.3945904,22.318526 3.1624462,20.622695 3.0670381,19.925759 3.03,19.340278 3.03,18.529223 c 0,-0.684972 0.012786,-0.966819 0.07033,-1.55072 0.3502099,-3.553242 1.9245951,-6.872452 4.4645898,-9.4125077 2.0256651,-2.0257147 4.5441392,-3.4418821 7.3080892,-4.1094251 0.878828,-0.2122519 1.709203,-0.3372647 2.700207,-0.406514 0.367461,-0.025672 1.54324,-0.025329 1.914907,5.648e-4 2.16222,0.1506495 4.085156,0.6654288 5.930782,1.5877015 3.232375,1.6152397 5.766824,4.2482211 7.254532,7.5365825 0.359915,0.795522 0.694492,1.767607 0.908787,2.640345 0.826798,3.367218 0.501464,6.946196 -0.916699,10.084653 -1.951662,4.319068 -5.792472,7.530455 -10.370939,8.671361 -0.915319,0.228088 -1.706506,0.353717 -2.690173,0.427156 -0.289471,0.02161 -1.400598,0.04106 -1.643565,0.02875 z m 9.880776,-15.501832 0.0043,-9.3159478 -9.318709,0 -9.3187107,0 0,9.3094868 c 0,5.120219 0.00462,9.314145 0.010306,9.319838 0.00569,0.0057 4.1973627,0.0086 9.3148227,0.0064 l 9.304476,-0.0039 0.0043,-9.31595 z m -15.703024,0.0039 0,-6.388964 6.388193,0 6.388197,0 0,6.388964 0,6.388965 -6.388197,0 -6.388193,0 0,-6.388965 z"
   id="path4206"
   inkscape:connector-curvature="0" /></svg>