<?xml version="1.0" encoding="UTF-8" standalone="no"?>
<!-- Generator: Adobe Illustrator 16.0.3, SVG Export Plug-In . SVG Version: 6.00 Build 0)  -->

<svg
   xmlns:dc="http://purl.org/dc/elements/1.1/"
   xmlns:cc="http://creativecommons.org/ns#"
   xmlns:rdf="http://www.w3.org/1999/02/22-rdf-syntax-ns#"
   xmlns:svg="http://www.w3.org/2000/svg"
   xmlns="http://www.w3.org/2000/svg"
   xmlns:sodipodi="http://sodipodi.sourceforge.net/DTD/sodipodi-0.dtd"
   xmlns:inkscape="http://www.inkscape.org/namespaces/inkscape"
   version="1.1"
   id="_x30_"
   x="0px"
   y="0px"
   width="37.061px"
   height="37.061px"
   viewBox="0 0 37.061 37.061"
   enable-background="new 0 0 37.061 37.061"
   xml:space="preserve"
   inkscape:version="0.91 r13725"
   sodipodi:docname="button_a.svg"><metadata
   id="metadata17"><rdf:RDF><cc:Work
       rdf:about=""><dc:format>image/svg+xml</dc:format><dc:type
         rdf:resource="http://purl.org/dc/dcmitype/StillImage" /></cc:Work></rdf:RDF></metadata><defs
   id="defs15" /><sodipodi:namedview
   pagecolor="#ffffff"
   bordercolor="#666666"
   borderopacity="1"
   objecttolerance="10"
   gridtolerance="10"
   guidetolerance="10"
   inkscape:pageopacity="0"
   inkscape:pageshadow="2"
   inkscape:window-width="1273"
   inkscape:window-height="749"
   id="namedview13"
   showgrid="false"
   inkscape:zoom="5.6568543"
   inkscape:cx="-0.76886092"
   inkscape:cy="37.214751"
   inkscape:window-x="89"
   inkscape:window-y="-4"
   inkscape:window-maximized="1"
   inkscape:current-layer="_x30_" />

<g
   opacity="0"
   id="g9">
	<path
   fill="#FFFFFF"
   d="M36.961,0.1v36.861H0.1V0.1H36.961 M37.061,0H0v37.06h37.061V0L37.061,0z"
   id="path11" />
</g>
<path
   style="fill:#ffffff"
   d="M 18.03947,34.024027 C 15.562128,33.951582 13.113973,33.271005 10.948701,32.052839 7.2311099,29.961349 4.5186162,26.42965 3.4901867,22.341766 3.2513525,21.392433 3.1127723,20.514532 3.046366,19.530189 3.0212819,19.15839 3.0260352,17.811164 3.0537716,17.434326 3.1539351,16.073048 3.4055963,14.825404 3.8372298,13.550238 4.1817299,12.532487 4.6449514,11.531804 5.197365,10.611974 5.7202183,9.7413717 6.2569528,9.0100957 6.9499556,8.2241517 7.2073027,7.9322917 7.8758801,7.2604883 8.1625877,7.0056683 9.6727498,5.6634717 11.286499,4.6871534 13.13204,3.9991489 c 2.731323,-1.0182183 5.723965,-1.2389985 8.610295,-0.6352193 1.938405,0.405486 3.803593,1.1987166 5.476277,2.3289585 0.836699,0.5653616 1.506463,1.1211503 2.26462,1.8792389 0.589135,0.5890827 0.979511,1.0347237 1.430186,1.6326597 1.743347,2.3129953 2.793438,5.0335493 3.056776,7.9194333 0.07986,0.875295 0.07973,1.914392 -3.43e-4,2.814218 -0.251678,2.827794 -1.290201,5.544697 -2.996018,7.837951 -1.107767,1.489251 -2.4863,2.780192 -4.036323,3.779865 -2.661642,1.7166 -5.706675,2.561104 -8.898039,2.467773 z m -2.819273,-9.766007 3.282067,-3.278332 3.43088,3.422448 3.43088,3.422448 1.222304,-1.222307 1.222304,-1.222306 -3.423207,-3.422216 -3.423204,-3.422217 3.422797,-3.422827 c 1.882538,-1.882554 3.422797,-3.426364 3.422797,-3.430686 0,-0.0044 -0.548895,-0.556791 -1.219766,-1.227702 L 25.368284,9.2344817 21.940961,12.652378 c -1.885026,1.879844 -3.431916,3.416057 -3.437532,3.413812 -0.0055,-0.0022 -1.551389,-1.540807 -3.435053,-3.419022 l -3.424847,-3.4149343 -1.224919,1.2258223 -1.2249192,1.22582 3.4227972,3.416988 c 1.882539,1.879345 3.422798,3.422645 3.422798,3.429556 0,0.0069 -1.53851,1.551065 -3.418909,3.431453 l -3.4189103,3.418891 1.2208673,1.220942 1.220868,1.220944 0.147465,-0.143148 c 0.08111,-0.07874 1.624394,-1.6184 3.42953,-3.421482 z"
   id="path4156"
   inkscape:connector-curvature="0" /></svg>