<?xml version="1.0" encoding="UTF-8" standalone="no"?>
<!-- Generator: Adobe Illustrator 16.0.3, SVG Export Plug-In . SVG Version: 6.00 Build 0)  -->

<svg
   xmlns:dc="http://purl.org/dc/elements/1.1/"
   xmlns:cc="http://creativecommons.org/ns#"
   xmlns:rdf="http://www.w3.org/1999/02/22-rdf-syntax-ns#"
   xmlns:svg="http://www.w3.org/2000/svg"
   xmlns="http://www.w3.org/2000/svg"
   xmlns:sodipodi="http://sodipodi.sourceforge.net/DTD/sodipodi-0.dtd"
   xmlns:inkscape="http://www.inkscape.org/namespaces/inkscape"
   version="1.1"
   id="_x30_"
   x="0px"
   y="0px"
   width="37.061px"
   height="37.061px"
   viewBox="0 0 37.061 37.061"
   enable-background="new 0 0 37.061 37.061"
   xml:space="preserve"
   inkscape:version="0.91 r13725"
   sodipodi:docname="dpad_all.svg"><metadata
   id="metadata45"><rdf:RDF><cc:Work
       rdf:about=""><dc:format>image/svg+xml</dc:format><dc:type
         rdf:resource="http://purl.org/dc/dcmitype/StillImage" /><dc:title></dc:title></cc:Work></rdf:RDF></metadata><defs
   id="defs43" /><sodipodi:namedview
   pagecolor="#ffffff"
   bordercolor="#666666"
   borderopacity="1"
   objecttolerance="10"
   gridtolerance="10"
   guidetolerance="10"
   inkscape:pageopacity="0"
   inkscape:pageshadow="2"
   inkscape:window-width="1273"
   inkscape:window-height="749"
   id="namedview41"
   showgrid="false"
   inkscape:zoom="8"
   inkscape:cx="47.451507"
   inkscape:cy="11.526801"
   inkscape:window-x="89"
   inkscape:window-y="-4"
   inkscape:window-maximized="1"
   inkscape:current-layer="_x30_" />

<path
   style="fill:#ffffff"
   d="m 14.240718,36.943283 c -0.777559,-0.102121 -1.441831,-0.650154 -1.693379,-1.397095 -0.113824,-0.337904 -0.107748,-0.07377 -0.107748,-4.708602 l 0,-4.237674 3.082261,-2.769121 3.08226,-2.769121 0.08905,0.07918 c 0.04897,0.04355 1.438595,1.291361 3.087987,2.77291 l 2.998902,2.693727 -0.0047,4.268949 c -0.0047,4.033865 -0.007,4.276649 -0.03845,4.408763 -0.101086,0.424798 -0.258991,0.727424 -0.529447,1.014317 -0.34103,0.361773 -0.772826,0.58396 -1.249137,0.64277 -0.19682,0.0243 -8.532491,0.02524 -8.717204,9.88e-4 z m 4.8008,-3.731969 c 0.225394,-0.299897 0.696959,-0.926957 1.047934,-1.393466 0.350962,-0.466509 0.638305,-0.85449 0.63855,-0.862179 2.46e-4,-0.0077 -0.953367,-0.01398 -2.119122,-0.01398 -1.647756,0 -2.116493,0.0049 -2.1058,0.02244 0.01192,0.01939 0.55566,0.74418 1.493613,1.990858 0.486103,0.646098 0.606519,0.801594 0.620776,0.801594 0.0082,0 0.198656,-0.245372 0.424049,-0.54527 z M 1.9119855,24.657242 C 1.1567645,24.570181 0.47810753,24.023461 0.21917547,23.293528 0.08941786,22.92774 0.09667856,23.234644 0.10266311,18.367859 l 0.005376,-4.3808 0.0499472,-0.182267 C 0.2154826,13.594957 0.33647782,13.326883 0.45117062,13.155218 0.56062446,12.991385 0.81828038,12.729099 0.98129835,12.615554 1.1637342,12.488483 1.4279508,12.364862 1.6478226,12.303701 l 0.1808992,-0.05033 4.2739444,-0.0046 4.2739438,-0.0046 0.416289,0.471875 c 0.228969,0.259529 1.461196,1.652325 2.738286,3.095101 1.277101,1.442775 2.324322,2.629951 2.327162,2.638168 0.0047,0.01308 -0.958849,1.106457 -4.597027,5.217383 l -0.895018,1.011313 -4.1577755,-0.0025 c -2.28678,-0.0013 -4.2202248,-0.0097 -4.2965457,-0.01842 z m 4.4404613,-6.065683 c 0,-1.173961 -0.00269,-2.134475 -0.00608,-2.134475 -0.00327,0 -0.313451,0.234924 -0.6891957,0.522052 -0.375746,0.287129 -0.861634,0.658332 -1.0797517,0.824896 C 4.3593017,17.970596 4.0364316,18.217325 3.85993,18.35232 l -0.3209127,0.245446 1.39281,1.06379 c 0.766046,0.585082 1.3990552,1.063943 1.4066863,1.064134 0.0076,1.86e-4 0.013872,-0.960169 0.013872,-2.134131 z m 17.7433472,2.979123 c -1.511143,-1.709015 -2.74545,-3.114123 -2.742902,-3.122464 0.0023,-0.0084 1.237544,-1.407813 2.744445,-3.109935 l 2.739805,-3.094768 4.267788,0.0049 4.267788,0.0049 0.177129,0.04936 c 0.390836,0.108903 0.692869,0.283445 0.960882,0.555289 0.24983,0.253401 0.416091,0.537127 0.530558,0.905434 l 0.05212,0.167672 0.0047,4.455367 c 0.0047,4.02656 0.0023,4.469722 -0.02454,4.604502 -0.0811,0.407896 -0.252202,0.73522 -0.544032,1.040929 -0.288324,0.302054 -0.632988,0.495219 -1.073935,0.601896 -0.131226,0.03174 -0.369077,0.03386 -4.3757,0.03887 l -4.236948,0.0053 -2.747529,-3.107298 z m 7.448424,-1.348058 c 0.375737,-0.287129 0.86163,-0.658331 1.079743,-0.824895 0.218125,-0.166564 0.541005,-0.413301 0.717515,-0.548306 l 0.320929,-0.245462 -1.387794,-1.05932 c -0.76329,-0.582626 -1.396314,-1.062178 -1.406714,-1.065672 -0.01285,-0.0044 -0.01893,0.683248 -0.01893,2.129679 0,1.174815 0.0023,2.136028 0.0058,2.136028 0.0035,0 0.313461,-0.234923 0.689199,-0.522052 z m -16.028245,-7.145754 -3.075505,-2.762227 0.0047,-4.3062337 0.0047,-4.3062339 0.0499,-0.1822658 c 0.06065,-0.2215329 0.183405,-0.4877457 0.309524,-0.67155986 0.112655,-0.16424955 0.373003,-0.42384733 0.535606,-0.53413279 0.170386,-0.11555576 0.436448,-0.23746744 0.644709,-0.29539957 l 0.180904,-0.05032457 4.347945,-0.0054163 c 3.963126,-0.0049453 4.364328,-0.0027081 4.532938,0.02522116 0.906296,0.15018246 1.607836,0.89785438 1.710184,1.82264194 0.01344,0.1215055 0.01975,1.509033 0.01975,4.3344293 l 0,4.1557141 -3.084083,2.770414 c -1.696254,1.523726 -3.088758,2.76978 -3.094449,2.769006 -0.0058,-7.75e-4 -1.394339,-1.244408 -3.08586,-2.763632 z M 20.698354,6.2376275 C 20.686434,6.2182347 20.142694,5.4934479 19.204741,4.2467689 18.718638,3.6006716 18.598222,3.4451752 18.583976,3.4451752 c -0.0082,0 -0.198655,0.2453718 -0.42406,0.5452704 -0.225394,0.2998975 -0.696959,0.9269576 -1.047922,1.3934669 -0.350963,0.466509 -0.638317,0.8544897 -0.638562,0.8621785 -2.34e-4,0.00765 0.953367,0.013977 2.119134,0.013977 1.647756,0 2.116493,-0.00495 2.105788,-0.022442 z"
   id="path4184"
   inkscape:connector-curvature="0" /></svg>