<?xml version="1.0" encoding="UTF-8" standalone="no"?>
<!-- Generator: Adobe Illustrator 16.0.3, SVG Export Plug-In . SVG Version: 6.00 Build 0)  -->

<svg
   xmlns:dc="http://purl.org/dc/elements/1.1/"
   xmlns:cc="http://creativecommons.org/ns#"
   xmlns:rdf="http://www.w3.org/1999/02/22-rdf-syntax-ns#"
   xmlns:svg="http://www.w3.org/2000/svg"
   xmlns="http://www.w3.org/2000/svg"
   xmlns:sodipodi="http://sodipodi.sourceforge.net/DTD/sodipodi-0.dtd"
   xmlns:inkscape="http://www.inkscape.org/namespaces/inkscape"
   version="1.1"
   id="_x30_"
   x="0px"
   y="0px"
   width="37.061px"
   height="37.061px"
   viewBox="0 0 37.061 37.061"
   enable-background="new 0 0 37.061 37.061"
   xml:space="preserve"
   inkscape:version="0.91 r13725"
   sodipodi:docname="dpad_down.svg"><metadata
   id="metadata45"><rdf:RDF><cc:Work
       rdf:about=""><dc:format>image/svg+xml</dc:format><dc:type
         rdf:resource="http://purl.org/dc/dcmitype/StillImage" /><dc:title></dc:title></cc:Work></rdf:RDF></metadata><defs
   id="defs43" /><sodipodi:namedview
   pagecolor="#ffffff"
   bordercolor="#666666"
   borderopacity="1"
   objecttolerance="10"
   gridtolerance="10"
   guidetolerance="10"
   inkscape:pageopacity="0"
   inkscape:pageshadow="2"
   inkscape:window-width="1273"
   inkscape:window-height="749"
   id="namedview41"
   showgrid="false"
   inkscape:zoom="4"
   inkscape:cx="84.168556"
   inkscape:cy="10.61985"
   inkscape:window-x="89"
   inkscape:window-y="-4"
   inkscape:window-maximized="1"
   inkscape:current-layer="_x30_" />

<path
   style="fill:#ffffff"
   d="m 14.24061,36.943282 c -0.777551,-0.102116 -1.441813,-0.650154 -1.693361,-1.397095 -0.113803,-0.337905 -0.107756,-0.07376 -0.107756,-4.7086 l 0,-4.237674 3.082237,-2.76912 3.082236,-2.76912 0.08909,0.07918 c 0.04899,0.04355 1.43859,1.29136 3.087973,2.772909 l 2.998879,2.693726 -0.0049,4.268949 c -0.0049,4.033864 -0.0073,4.276648 -0.03841,4.408762 -0.101034,0.424798 -0.258994,0.727423 -0.529446,1.014317 -0.341026,0.361772 -0.772816,0.583959 -1.249129,0.642769 -0.196819,0.0243 -8.532423,0.02525 -8.717141,9.84e-4 z m 4.800769,-3.731968 c 0.2254,-0.299898 0.696961,-0.926958 1.047923,-1.393467 0.350962,-0.466508 0.638309,-0.854488 0.638554,-0.862178 2.36e-4,-0.0077 -0.953359,-0.01398 -2.119113,-0.01398 -1.647739,0 -2.116484,0.005 -2.105774,0.02244 0.01188,0.01939 0.555651,0.74418 1.493596,1.990858 0.486103,0.646098 0.606522,0.801593 0.620772,0.801593 0.0081,0 0.19865,-0.24537 0.424042,-0.54527 z M 1.9119738,24.657243 C 1.156761,24.570183 0.47810302,24.023462 0.21917409,23.29353 0.08942072,22.927743 0.09667988,23.234648 0.10266136,18.367862 l 0.005697,-4.3808 0.0499677,-0.182266 C 0.2158619,13.594961 0.33681801,13.326887 0.45150781,13.155222 0.56096483,12.991389 0.81861609,12.729104 0.98162977,12.615559 1.164069,12.488488 1.4282795,12.364865 1.6481539,12.303705 l 0.1809011,-0.05032 4.2739102,-0.0046 4.2739098,-0.0046 0.416295,0.471874 c 0.228956,0.259529 1.461174,1.652325 2.738265,3.095099 1.277082,1.442776 2.324297,2.629951 2.327137,2.63817 0.0049,0.01308 -0.958843,1.106456 -4.596991,5.21738 l -0.895009,1.011313 -4.1577468,-0.0024 c -2.2867647,-0.0013 -4.2201989,-0.0096 -4.2965178,-0.01842 z M 24.095616,21.570684 C 22.584483,19.86167 21.35019,18.456562 21.352737,18.44822 c 0.0024,-0.0083 1.23754,-1.407811 2.744425,-3.109933 l 2.739795,-3.094768 4.26775,0.0049 4.26775,0.0049 0.177133,0.04936 c 0.390839,0.108906 0.692859,0.283444 0.960878,0.555289 0.24983,0.253401 0.416083,0.537126 0.530545,0.905433 l 0.05208,0.167673 0.0049,4.455366 c 0.0049,4.026559 0.0024,4.46972 -0.02458,4.6045 -0.08114,0.407897 -0.252198,0.735221 -0.544021,1.04093 -0.288324,0.302053 -0.632979,0.495219 -1.073924,0.601895 -0.131227,0.03175 -0.369078,0.03386 -4.375677,0.03887 l -4.236906,0.0053 -2.747518,-3.107297 z m -8.579754,-8.49381 -3.075482,-2.762226 0.0041,-4.3062326 0.0041,-4.3062325 0.04997,-0.1822664 c 0.06071,-0.221533 0.183399,-0.4877452 0.309515,-0.67156014 0.112696,-0.16424867 0.373008,-0.42384672 0.535615,-0.5341322 0.170379,-0.11555906 0.436437,-0.2374674 0.644698,-0.29539894 l 0.180901,-0.05032018 4.347918,-0.0054281 c 3.963093,-0.0049444 4.364292,-0.0027141 4.532896,0.0252261 0.906296,0.15018166 1.60783,0.89785348 1.710183,1.82264171 0.01343,0.1215045 0.01977,1.5090319 0.01977,4.334428 l 0,4.1557143 -3.084067,2.770412 c -1.696243,1.523726 -3.088731,2.769779 -3.094428,2.769005 -0.0057,-7.73e-4 -1.39432,-1.244408 -3.085833,-2.763631 z"
   id="path4197"
   inkscape:connector-curvature="0" /></svg>