<?xml version="1.0" encoding="UTF-8" standalone="no"?>
<!-- Generator: Adobe Illustrator 16.0.3, SVG Export Plug-In . SVG Version: 6.00 Build 0)  -->

<svg
   xmlns:dc="http://purl.org/dc/elements/1.1/"
   xmlns:cc="http://creativecommons.org/ns#"
   xmlns:rdf="http://www.w3.org/1999/02/22-rdf-syntax-ns#"
   xmlns:svg="http://www.w3.org/2000/svg"
   xmlns="http://www.w3.org/2000/svg"
   xmlns:sodipodi="http://sodipodi.sourceforge.net/DTD/sodipodi-0.dtd"
   xmlns:inkscape="http://www.inkscape.org/namespaces/inkscape"
   version="1.1"
   id="_x30_"
   x="0px"
   y="0px"
   width="37.061px"
   height="37.061px"
   viewBox="0 0 37.061 37.061"
   enable-background="new 0 0 37.061 37.061"
   xml:space="preserve"
   inkscape:version="0.91 r13725"
   sodipodi:docname="dpad_updown.svg"><metadata
   id="metadata45"><rdf:RDF><cc:Work
       rdf:about=""><dc:format>image/svg+xml</dc:format><dc:type
         rdf:resource="http://purl.org/dc/dcmitype/StillImage" /><dc:title></dc:title></cc:Work></rdf:RDF></metadata><defs
   id="defs43" /><sodipodi:namedview
   pagecolor="#ffffff"
   bordercolor="#666666"
   borderopacity="1"
   objecttolerance="10"
   gridtolerance="10"
   guidetolerance="10"
   inkscape:pageopacity="0"
   inkscape:pageshadow="2"
   inkscape:window-width="1273"
   inkscape:window-height="749"
   id="namedview41"
   showgrid="false"
   inkscape:zoom="4"
   inkscape:cx="36.522342"
   inkscape:cy="21.753147"
   inkscape:window-x="89"
   inkscape:window-y="-4"
   inkscape:window-maximized="1"
   inkscape:current-layer="_x30_" />

<path
   style="fill:#ffffff"
   d="M 14.240553,36.943279 C 13.463,36.841164 12.798747,36.293126 12.547194,35.546185 12.433391,35.20828 12.439436,35.472423 12.439436,30.837584 l 0,-4.237673 3.082229,-2.76912 3.082219,-2.76912 0.08906,0.07918 c 0.049,0.04355 1.438582,1.29136 3.087962,2.772909 l 2.998861,2.693725 -0.005,4.268949 c -0.005,4.033864 -0.007,4.276649 -0.03846,4.408762 -0.101031,0.424797 -0.258994,0.727423 -0.529444,1.014317 -0.341027,0.361772 -0.772814,0.583959 -1.249122,0.64277 -0.196821,0.0243 -8.532382,0.02525 -8.717104,9.87e-4 z m 4.800751,-3.731967 c 0.225387,-0.299899 0.696955,-0.926958 1.047913,-1.393467 0.350958,-0.466508 0.638307,-0.854488 0.638548,-0.862178 2.41e-4,-0.0077 -0.953359,-0.01398 -2.119101,-0.01398 -1.647734,0 -2.116471,0.005 -2.105767,0.02245 0.01185,0.01939 0.55565,0.74418 1.493596,1.990859 0.486088,0.646097 0.606508,0.801593 0.620756,0.801593 0.008,0 0.198658,-0.245372 0.424055,-0.54527 z M 1.9119656,24.657241 C 1.1567532,24.570176 0.47810428,24.023461 0.21917488,23.293528 0.08941899,22.92774 0.09667853,23.234648 0.10266287,18.36786 l 0.005422,-4.380799 0.0499432,-0.182267 C 0.21552197,13.594959 0.33651822,13.326886 0.45120881,13.15522 0.56066612,12.991388 0.81831531,12.729102 0.98133051,12.615557 1.1637647,12.488486 1.4279776,12.364864 1.6478471,12.303704 l 0.180898,-0.05032 4.2738944,-0.0046 4.2738945,-0.0046 0.416293,0.471874 c 0.228951,0.259529 1.461164,1.652324 2.73825,3.095099 1.277075,1.442776 2.324286,2.629951 2.327127,2.638169 0.004,0.01308 -0.958841,1.106457 -4.596972,5.217382 l -0.895001,1.011311 -4.1577328,-0.0024 C 3.921745,24.67437 1.9883223,24.666074 1.9120028,24.657273 Z M 24.095516,21.570683 c -1.511128,-1.709015 -2.745419,-3.114122 -2.742869,-3.122464 0.002,-0.0083 1.237535,-1.407811 2.744415,-3.109934 l 2.739776,-3.094767 4.267733,0.005 4.267732,0.005 0.177131,0.04936 c 0.39084,0.108907 0.692859,0.283445 0.960879,0.555291 0.249826,0.2534 0.416073,0.537125 0.530538,0.905432 l 0.05211,0.167673 0.005,4.455365 c 0.005,4.026559 0.002,4.46972 -0.0246,4.604499 -0.08113,0.407898 -0.252196,0.735222 -0.544013,1.04093 -0.288333,0.302054 -0.632986,0.49522 -1.073929,0.601897 -0.131224,0.03175 -0.369072,0.03386 -4.375652,0.03886 l -4.236897,0.0053 -2.747498,-3.107297 z m -8.579725,-8.493811 -3.075462,-2.762225 0.004,-4.3062323 0.004,-4.3062323 0.0499,-0.1822664 c 0.06065,-0.221533 0.183316,-0.4877453 0.309439,-0.67156014 0.112688,-0.16424862 0.373007,-0.4238467 0.535609,-0.53413218 0.170373,-0.11555912 0.436435,-0.23746742 0.644693,-0.29539896 l 0.180896,-0.05032027 4.347908,-0.0054267 c 3.963073,-0.0049471 4.364265,-0.0027143 4.532881,0.02522609 0.906287,0.15018167 1.607821,0.89785338 1.710168,1.82264162 0.01345,0.1215045 0.01978,1.5090318 0.01978,4.3344278 l 0,4.1557127 -3.084057,2.770412 c -1.69623,1.523727 -3.088716,2.769779 -3.094409,2.769005 -0.006,-7.73e-4 -1.394312,-1.244407 -3.085824,-2.763631 z M 20.698114,6.2376328 C 20.686266,6.2182389 20.142464,5.4934532 19.204518,4.2467742 18.71843,3.6006777 18.59801,3.4451812 18.583763,3.4451812 c -0.008,0 -0.198659,0.2453713 -0.424056,0.5452696 -0.225387,0.2998983 -0.696955,0.9269584 -1.047913,1.3934669 -0.350958,0.4665085 -0.638307,0.8544889 -0.638548,0.8621786 -2.41e-4,0.00769 0.953359,0.013982 2.119101,0.013982 1.647734,0 2.116471,-0.005 2.105767,-0.022445 z"
   id="path4262"
   inkscape:connector-curvature="0" /></svg>