<?xml version="1.0" encoding="UTF-8" standalone="no"?>
<!-- Generator: Adobe Illustrator 16.0.3, SVG Export Plug-In . SVG Version: 6.00 Build 0)  -->

<svg
   xmlns:dc="http://purl.org/dc/elements/1.1/"
   xmlns:cc="http://creativecommons.org/ns#"
   xmlns:rdf="http://www.w3.org/1999/02/22-rdf-syntax-ns#"
   xmlns:svg="http://www.w3.org/2000/svg"
   xmlns="http://www.w3.org/2000/svg"
   xmlns:sodipodi="http://sodipodi.sourceforge.net/DTD/sodipodi-0.dtd"
   xmlns:inkscape="http://www.inkscape.org/namespaces/inkscape"
   version="1.1"
   id="_x30_"
   x="0px"
   y="0px"
   width="37.061px"
   height="37.061px"
   viewBox="0 0 37.061 37.061"
   enable-background="new 0 0 37.061 37.061"
   xml:space="preserve"
   inkscape:version="0.91 r13725"
   sodipodi:docname="dpad_up.svg"><metadata
   id="metadata45"><rdf:RDF><cc:Work
       rdf:about=""><dc:format>image/svg+xml</dc:format><dc:type
         rdf:resource="http://purl.org/dc/dcmitype/StillImage" /><dc:title></dc:title></cc:Work></rdf:RDF></metadata><defs
   id="defs43" /><sodipodi:namedview
   pagecolor="#ffffff"
   bordercolor="#666666"
   borderopacity="1"
   objecttolerance="10"
   gridtolerance="10"
   guidetolerance="10"
   inkscape:pageopacity="0"
   inkscape:pageshadow="2"
   inkscape:window-width="1273"
   inkscape:window-height="749"
   id="namedview41"
   showgrid="false"
   inkscape:zoom="4"
   inkscape:cx="75.682218"
   inkscape:cy="-14.47804"
   inkscape:window-x="89"
   inkscape:window-y="-4"
   inkscape:window-maximized="1"
   inkscape:current-layer="_x30_" />

<path
   style="fill:#ffffff"
   d="m 14.240611,36.943276 c -0.777558,-0.102116 -1.441815,-0.650153 -1.693369,-1.397094 -0.113797,-0.337905 -0.107753,-0.07377 -0.107753,-4.708599 l 0,-4.237671 3.08224,-2.769119 3.082233,-2.769119 0.08909,0.07918 c 0.049,0.04355 1.438586,1.291361 3.087975,2.772909 l 2.998879,2.693724 -0.005,4.268948 c -0.005,4.033862 -0.007,4.276645 -0.03838,4.408759 -0.101039,0.424798 -0.258998,0.727423 -0.529447,1.014317 -0.341034,0.361772 -0.772822,0.583958 -1.24913,0.642769 -0.196819,0.0243 -8.532427,0.02525 -8.717141,0.001 z M 1.9119717,24.657242 C 1.1567584,24.570182 0.478103,24.023462 0.21917453,23.29353 0.08942133,22.927743 0.09667696,23.234653 0.10266364,18.367864 l 0.005654,-4.380797 0.0499413,-0.182267 C 0.21573854,13.594965 0.33674733,13.326892 0.45143647,13.155226 0.56089904,12.991394 0.81854602,12.729108 0.98156202,12.615564 1.1639954,12.488493 1.4282133,12.364871 1.6480807,12.30371 l 0.1809006,-0.05032 4.2739153,-0.0046 4.2739084,-0.0046 0.416291,0.471873 c 0.228957,0.259531 1.461182,1.652325 2.738267,3.095099 1.277084,1.442775 2.324294,2.62995 2.32714,2.638168 0.0044,0.01308 -0.958849,1.106455 -4.596995,5.217379 l -0.895005,1.011311 -4.1577496,-0.0024 c -2.2867658,-0.0013 -4.2201922,-0.0096 -4.2965113,-0.01842 z M 24.095616,21.570685 c -1.511136,-1.709013 -2.745428,-3.114121 -2.742884,-3.122462 0.0025,-0.0083 1.23754,-1.407811 2.74443,-3.109932 l 2.739787,-3.094766 4.267753,0.0049 4.267752,0.0049 0.177132,0.04936 c 0.390836,0.108906 0.692865,0.283445 0.960877,0.555289 0.249832,0.2534 0.416083,0.537126 0.530546,0.905433 l 0.05214,0.167672 0.005,4.455364 c 0.0044,4.026557 0.0025,4.469718 -0.02456,4.604497 -0.08113,0.407897 -0.252201,0.735221 -0.544022,1.04093 -0.288327,0.302053 -0.632979,0.495218 -1.073926,0.601896 -0.131224,0.03175 -0.369076,0.03386 -4.375677,0.03886 l -4.236908,0.0053 -2.747514,-3.107296 z m 9.556174,-2.9698 c -0.0063,-0.01025 -0.01514,-0.01864 -0.0196,-0.01864 -0.0044,0 -0.0082,0.0084 -0.0082,0.01864 0,0.01025 0.0088,0.01864 0.0196,0.01864 0.0108,0 0.01445,-0.0084 0.0082,-0.01864 z m -18.135935,-5.524007 -3.075474,-2.762224 0.0044,-4.3062308 0.0044,-4.3062303 0.04994,-0.182266 c 0.06068,-0.2215332 0.183394,-0.4877451 0.30951,-0.67155996 0.112698,-0.16424866 0.373015,-0.42384637 0.535616,-0.53413159 0.170378,-0.11555954 0.436437,-0.23746749 0.644702,-0.29539885 l 0.180894,-0.05031895 4.347923,-0.0054433 c 3.963098,-0.0049369 4.364293,-0.0027216 4.5329,0.0252291 0.906293,0.15018151 1.607828,0.89785282 1.710173,1.82264056 0.01344,0.1215047 0.01979,1.5090312 0.01979,4.334426 l 0,4.1557121 -3.084062,2.770411 c -1.696239,1.523725 -3.088729,2.769778 -3.094427,2.769004 -0.0057,-7.6e-4 -1.394317,-1.244408 -3.085833,-2.763631 z m 5.182351,-6.8392365 c -0.01187,-0.019393 -0.555655,-0.7441793 -1.493604,-1.9908577 -0.486095,-0.6460966 -0.606513,-0.801593 -0.620767,-0.801593 -0.0079,0 -0.198653,0.2453717 -0.424049,0.5452695 -0.225389,0.2998985 -0.696955,0.9269581 -1.04792,1.3934667 -0.350958,0.466508 -0.638306,0.854488 -0.638551,0.8621776 -2.39e-4,0.00769 0.953358,0.013982 2.119114,0.013982 1.647743,0 2.116481,-0.005 2.105777,-0.022444 z"
   id="path4249"
   inkscape:connector-curvature="0" /></svg>