<?xml version="1.0" encoding="UTF-8" standalone="no"?>
<!-- Generator: Adobe Illustrator 16.0.3, SVG Export Plug-In . SVG Version: 6.00 Build 0)  -->

<svg
   xmlns:dc="http://purl.org/dc/elements/1.1/"
   xmlns:cc="http://creativecommons.org/ns#"
   xmlns:rdf="http://www.w3.org/1999/02/22-rdf-syntax-ns#"
   xmlns:svg="http://www.w3.org/2000/svg"
   xmlns="http://www.w3.org/2000/svg"
   xmlns:sodipodi="http://sodipodi.sourceforge.net/DTD/sodipodi-0.dtd"
   xmlns:inkscape="http://www.inkscape.org/namespaces/inkscape"
   version="1.1"
   id="_x30_"
   x="0px"
   y="0px"
   width="37.061px"
   height="37.061px"
   viewBox="0 0 37.061 37.061"
   enable-background="new 0 0 37.061 37.061"
   xml:space="preserve"
   inkscape:version="0.91 r13725"
   sodipodi:docname="dpad_leftright.svg"><metadata
   id="metadata45"><rdf:RDF><cc:Work
       rdf:about=""><dc:format>image/svg+xml</dc:format><dc:type
         rdf:resource="http://purl.org/dc/dcmitype/StillImage" /><dc:title></dc:title></cc:Work></rdf:RDF></metadata><defs
   id="defs43" /><sodipodi:namedview
   pagecolor="#ffffff"
   bordercolor="#666666"
   borderopacity="1"
   objecttolerance="10"
   gridtolerance="10"
   guidetolerance="10"
   inkscape:pageopacity="0"
   inkscape:pageshadow="2"
   inkscape:window-width="1273"
   inkscape:window-height="749"
   id="namedview41"
   showgrid="false"
   inkscape:zoom="4"
   inkscape:cx="83.973886"
   inkscape:cy="-25.17317"
   inkscape:window-x="89"
   inkscape:window-y="-4"
   inkscape:window-maximized="1"
   inkscape:current-layer="_x30_" />

<path
   style="fill:#ffffff"
   d="m 14.240665,36.94328 c -0.777559,-0.102115 -1.441823,-0.650153 -1.693378,-1.397093 -0.113802,-0.337905 -0.107752,-0.07377 -0.107752,-4.708595 l 0,-4.23767 3.082244,-2.769117 3.082252,-2.769117 0.08909,0.07918 c 0.04897,0.04355 1.438594,1.291359 3.087979,2.772906 l 2.998896,2.693723 -0.0048,4.268944 c -0.0048,4.033861 -0.007,4.276644 -0.03841,4.408758 -0.101038,0.424797 -0.259004,0.727422 -0.529448,1.014316 -0.341035,0.361771 -0.772826,0.583958 -1.249138,0.642769 -0.196821,0.0243 -8.532455,0.02525 -8.71717,9.67e-4 z M 1.9119816,24.657254 C 1.1567619,24.570193 0.47810744,24.023474 0.21917263,23.293543 0.08941715,22.927755 0.09668066,23.234664 0.10266156,18.36788 l 0.005487,-4.380795 0.0499323,-0.182266 C 0.21555796,13.594984 0.33657523,13.326911 0.45126184,13.155245 0.56072202,12.991413 0.81837424,12.729127 0.98138822,12.615582 1.1638265,12.488512 1.4280427,12.36489 1.6479095,12.303729 l 0.1809019,-0.05032 4.2739265,-0.0046 4.2739261,-0.0046 0.416297,0.471873 c 0.228955,0.25953 1.461179,1.652323 2.738274,3.095097 1.277088,1.442773 2.324302,2.629948 2.327142,2.638166 0.0048,0.01308 -0.958845,1.106455 -4.597005,5.217376 l -0.89501,1.011311 -4.1577648,-0.0024 c -2.2867706,-0.0013 -4.2202081,-0.0096 -4.2965264,-0.01842 z M 6.352427,18.59158 c 0,-1.17396 -0.00274,-2.134473 -0.00617,-2.134473 -0.00343,0 -0.3134557,0.234924 -0.6891965,0.522052 -0.3757477,0.287129 -0.8616277,0.658331 -1.0797455,0.824894 -0.2181179,0.166564 -0.5409908,0.413294 -0.7174893,0.548288 l -0.3209112,0.245445 1.3928034,1.063789 c 0.7660429,0.585082 1.3990519,1.063942 1.4066858,1.064132 0.00761,1.87e-4 0.013855,-0.960167 0.013855,-2.134127 z m 17.743276,2.979119 c -1.511139,-1.709013 -2.745442,-3.114119 -2.74289,-3.122461 0.0027,-0.0083 1.23754,-1.40781 2.744433,-3.10993 l 2.739797,-3.094764 4.267767,0.0049 4.267767,0.0049 0.177137,0.04936 c 0.390837,0.108906 0.692866,0.283445 0.960882,0.55529 0.249833,0.2534 0.416084,0.537125 0.530544,0.905432 l 0.05213,0.167672 0.0048,4.455361 c 0.0048,4.026554 0.0021,4.469716 -0.02455,4.604495 -0.08113,0.407896 -0.252199,0.73522 -0.544022,1.040929 -0.288332,0.302053 -0.632989,0.495218 -1.073936,0.601895 -0.131217,0.03175 -0.369074,0.03385 -4.375685,0.03886 l -4.236929,0.0053 -2.74752,-3.107294 z m 7.448388,-1.348056 c 0.375748,-0.287128 0.861635,-0.658331 1.079753,-0.824894 0.218111,-0.166564 0.54099,-0.413301 0.717509,-0.548306 l 0.320932,-0.245461 -1.387796,-1.059319 c -0.763286,-0.582625 -1.396302,-1.062177 -1.4067,-1.065669 -0.01283,-0.0043 -0.01893,0.683246 -0.01893,2.129674 0,1.174814 0.0027,2.136025 0.0062,2.136025 0.0034,0 0.313449,-0.234922 0.68919,-0.52205 z m -16.028176,-7.145746 -3.075489,-2.762223 0.0041,-4.3062274 0.0041,-4.3062282 0.04993,-0.1822662 c 0.0607,-0.2215327 0.183392,-0.4877449 0.309512,-0.67155908 0.112691,-0.1642487 0.373011,-0.42384672 0.535614,-0.53413206 0.17038,-0.11555888 0.436441,-0.23746659 0.644703,-0.29539806 l 0.180902,-0.0503166 4.347933,-0.0054594 c 3.963112,-0.0049757 4.364305,-0.0026952 4.532916,0.02522395 0.9063,0.15018134 1.607835,0.89785248 1.710183,1.82263928 0.01344,0.1215048 0.01975,1.5090303 0.01975,4.3344236 l 0,4.1557092 -3.084076,2.770409 c -1.696245,1.523725 -3.08874,2.769776 -3.09444,2.769002 -0.0055,-7.6e-4 -1.394326,-1.244406 -3.085838,-2.763628 z"
   id="path4223"
   inkscape:connector-curvature="0" /></svg>