<?xml version="1.0" encoding="UTF-8" standalone="no"?>
<!-- Generator: Adobe Illustrator 16.0.3, SVG Export Plug-In . SVG Version: 6.00 Build 0)  -->

<svg
   xmlns:dc="http://purl.org/dc/elements/1.1/"
   xmlns:cc="http://creativecommons.org/ns#"
   xmlns:rdf="http://www.w3.org/1999/02/22-rdf-syntax-ns#"
   xmlns:svg="http://www.w3.org/2000/svg"
   xmlns="http://www.w3.org/2000/svg"
   xmlns:sodipodi="http://sodipodi.sourceforge.net/DTD/sodipodi-0.dtd"
   xmlns:inkscape="http://www.inkscape.org/namespaces/inkscape"
   version="1.1"
   id="_x30_"
   x="0px"
   y="0px"
   width="37.061px"
   height="37.061px"
   viewBox="0 0 37.061 37.061"
   enable-background="new 0 0 37.061 37.061"
   xml:space="preserve"
   inkscape:version="0.91 r13725"
   sodipodi:docname="dpad_right.svg"><metadata
   id="metadata45"><rdf:RDF><cc:Work
       rdf:about=""><dc:format>image/svg+xml</dc:format><dc:type
         rdf:resource="http://purl.org/dc/dcmitype/StillImage" /><dc:title></dc:title></cc:Work></rdf:RDF></metadata><defs
   id="defs43" /><sodipodi:namedview
   pagecolor="#ffffff"
   bordercolor="#666666"
   borderopacity="1"
   objecttolerance="10"
   gridtolerance="10"
   guidetolerance="10"
   inkscape:pageopacity="0"
   inkscape:pageshadow="2"
   inkscape:window-width="1273"
   inkscape:window-height="749"
   id="namedview41"
   showgrid="false"
   inkscape:zoom="8"
   inkscape:cx="0.66287177"
   inkscape:cy="21.438726"
   inkscape:window-x="89"
   inkscape:window-y="-4"
   inkscape:window-maximized="1"
   inkscape:current-layer="_x30_" />

<path
   style="fill:#ffffff"
   d="m 14.240583,36.943281 c -0.777553,-0.102116 -1.441811,-0.650154 -1.693361,-1.397095 -0.113799,-0.337905 -0.107758,-0.07377 -0.107758,-4.7086 l 0,-4.237674 3.082231,-2.76912 3.082232,-2.769119 0.08909,0.07918 c 0.049,0.04355 1.438587,1.291361 3.087967,2.77291 l 2.998876,2.693725 -0.0052,4.268948 c -0.0049,4.033865 -0.007,4.276648 -0.03843,4.408762 -0.101036,0.424798 -0.258997,0.727423 -0.529443,1.014317 -0.341031,0.361772 -0.772817,0.583959 -1.249127,0.64277 -0.196823,0.0243 -8.532408,0.02525 -8.717128,9.8e-4 z M 1.9119692,24.657242 C 1.1567534,24.570182 0.47810538,24.023462 0.21917461,23.293529 0.08941956,22.927742 0.09667657,23.23465 0.10266438,18.367861 l 0.005395,-4.380799 0.0499412,-0.182266 C 0.21549508,13.594961 0.3364895,13.326887 0.45118216,13.155221 0.56063881,12.991389 0.81828712,12.729103 0.98130237,12.615558 1.1637406,12.488487 1.4279516,12.364865 1.6478201,12.303705 l 0.1808991,-0.05032 4.2739078,-0.0046 4.273903,-0.0046 0.41629,0.471874 c 0.228957,0.25953 1.461176,1.652325 2.738256,3.0951 1.277084,1.442775 2.324296,2.629951 2.327135,2.638169 0.0045,0.01308 -0.958841,1.106456 -4.596979,5.217381 l -0.895006,1.011312 -4.1577421,-0.0024 c -2.2867597,-0.0013 -4.2201856,-0.0096 -4.2965058,-0.01842 z M 24.095567,21.570684 c -1.51113,-1.709015 -2.745424,-3.114123 -2.742872,-3.122464 0.0027,-0.0083 1.237535,-1.407812 2.74442,-3.109933 l 2.739786,-3.094768 4.267743,0.0049 4.267743,0.0049 0.177131,0.04936 c 0.390835,0.108906 0.692857,0.283445 0.960876,0.555289 0.249829,0.253401 0.416082,0.537126 0.530544,0.905434 l 0.05211,0.167672 0.0051,4.455366 c 0.0046,4.026558 0.0022,4.46972 -0.02454,4.604499 -0.08113,0.407898 -0.252195,0.735222 -0.544015,1.04093 -0.28833,0.302054 -0.632983,0.495219 -1.073932,0.601896 -0.131218,0.03175 -0.369068,0.03386 -4.37566,0.03886 l -4.236902,0.0053 -2.747512,-3.107297 z m 7.448354,-1.348058 c 0.375742,-0.287128 0.861626,-0.658331 1.079743,-0.824895 0.218113,-0.166563 0.54099,-0.413301 0.717502,-0.548306 l 0.320932,-0.245461 -1.387788,-1.05932 c -0.763282,-0.582626 -1.396292,-1.062178 -1.406693,-1.065671 -0.01282,-0.0043 -0.01893,0.683247 -0.01893,2.129677 0,1.174815 0.0027,2.136028 0.006,2.136028 0.0031,0 0.313449,-0.234923 0.68919,-0.522052 z m -16.028094,-7.145753 -3.07547,-2.762225 0.004,-4.3062322 0.0044,-4.3062325 0.04994,-0.1822665 c 0.06071,-0.2215329 0.183398,-0.4877451 0.309514,-0.67155994 0.112693,-0.16424874 0.373008,-0.42384678 0.535612,-0.53413224 0.170379,-0.11555929 0.436438,-0.23746761 0.644698,-0.2953992 l 0.180899,-0.05032025 4.347911,-0.0054271 c 3.96309,-0.0049459 4.364282,-0.002718 4.532892,0.02522407 0.906291,0.1501819 1.607828,0.89785342 1.710174,1.82264188 0.01344,0.1215047 0.01977,1.5090316 0.01977,4.3344276 l 0,4.1557134 -3.084059,2.770412 c -1.696235,1.523727 -3.088723,2.769779 -3.094419,2.769005 -0.0057,-7.57e-4 -1.39432,-1.244407 -3.085828,-2.763631 z"
   id="path4236"
   inkscape:connector-curvature="0" /></svg>