<?xml version="1.0" encoding="UTF-8" standalone="no"?>
<!-- Generator: Adobe Illustrator 16.0.3, SVG Export Plug-In . SVG Version: 6.00 Build 0)  -->

<svg
   xmlns:dc="http://purl.org/dc/elements/1.1/"
   xmlns:cc="http://creativecommons.org/ns#"
   xmlns:rdf="http://www.w3.org/1999/02/22-rdf-syntax-ns#"
   xmlns:svg="http://www.w3.org/2000/svg"
   xmlns="http://www.w3.org/2000/svg"
   xmlns:sodipodi="http://sodipodi.sourceforge.net/DTD/sodipodi-0.dtd"
   xmlns:inkscape="http://www.inkscape.org/namespaces/inkscape"
   version="1.1"
   id="_x30_"
   x="0px"
   y="0px"
   width="37.061px"
   height="37.061px"
   viewBox="0 0 37.061 37.061"
   enable-background="new 0 0 37.061 37.061"
   xml:space="preserve"
   inkscape:version="0.91 r13725"
   sodipodi:docname="dpad_left.svg"><metadata
   id="metadata45"><rdf:RDF><cc:Work
       rdf:about=""><dc:format>image/svg+xml</dc:format><dc:type
         rdf:resource="http://purl.org/dc/dcmitype/StillImage" /><dc:title></dc:title></cc:Work></rdf:RDF></metadata><defs
   id="defs43" /><sodipodi:namedview
   pagecolor="#ffffff"
   bordercolor="#666666"
   borderopacity="1"
   objecttolerance="10"
   gridtolerance="10"
   guidetolerance="10"
   inkscape:pageopacity="0"
   inkscape:pageshadow="2"
   inkscape:window-width="1273"
   inkscape:window-height="749"
   id="namedview41"
   showgrid="false"
   inkscape:zoom="5.6568543"
   inkscape:cx="38.301818"
   inkscape:cy="-5.7516709"
   inkscape:window-x="89"
   inkscape:window-y="-4"
   inkscape:window-maximized="1"
   inkscape:current-layer="_x30_" />

<path
   style="fill:#ffffff"
   d="m 14.24045,36.943276 c -0.777547,-0.102115 -1.441799,-0.650154 -1.69335,-1.397095 -0.113798,-0.337905 -0.107754,-0.07377 -0.107754,-4.7086 l 0,-4.237673 3.08221,-2.76912 3.082202,-2.76912 0.0891,0.07918 c 0.04899,0.04355 1.438567,1.291362 3.087934,2.772911 l 2.998843,2.693725 -0.0055,4.268948 c -0.0046,4.033864 -0.0073,4.276647 -0.03837,4.408762 -0.101032,0.424797 -0.258996,0.727423 -0.529438,1.014317 -0.341027,0.361772 -0.772803,0.583958 -1.249111,0.642769 -0.196818,0.0243 -8.532326,0.02525 -8.717047,0.001 z M 1.911953,24.657238 C 1.1567457,24.570175 0.47810083,24.023457 0.21917444,23.293525 0.08941913,22.927738 0.09667904,23.23465 0.10266242,18.367857 l 0.005403,-4.380798 0.0499439,-0.182266 c 0.0574985,-0.209837 0.17848756,-0.47791 0.2931782,-0.649575 C 0.56064384,12.991386 0.81829095,12.7291 0.98130464,12.615555 1.1637382,12.488483 1.4279493,12.364862 1.647818,12.303701 l 0.1808961,-0.05032 4.2738613,-0.0046 4.2738686,-0.0046 0.416282,0.471873 c 0.22896,0.259531 1.461166,1.652326 2.738234,3.095101 1.277069,1.442774 2.32427,2.62995 2.327109,2.638168 0.0046,0.01308 -0.958825,1.106456 -4.596938,5.217381 l -0.894989,1.011312 -4.1577082,-0.0024 c -2.286734,-0.0013 -4.2201437,-0.0096 -4.2964625,-0.01842 z m 4.4403787,-6.06568 c 0,-1.173961 -0.00275,-2.134474 -0.00641,-2.134474 -0.00366,0 -0.3134453,0.234923 -0.6891878,0.522051 -0.3757332,0.287129 -0.8616105,0.658332 -1.0797283,0.824895 -0.2181087,0.166564 -0.5409768,0.413294 -0.7174747,0.548289 l -0.3209085,0.245445 1.3927891,1.06379 c 0.7660266,0.585082 1.3990252,1.063943 1.4066532,1.064133 0.00733,1.86e-4 0.013827,-0.960168 0.013827,-2.134129 z M 24.095346,21.57068 c -1.511119,-1.709015 -2.745405,-3.114122 -2.74285,-3.122464 0.0027,-0.0083 1.237527,-1.407811 2.744398,-3.109933 l 2.739755,-3.094767 4.267706,0.0049 4.267705,0.0049 0.17713,0.04935 c 0.390834,0.108906 0.692851,0.283445 0.960867,0.55529 0.249829,0.2534 0.416071,0.537126 0.530537,0.905432 l 0.05211,0.167673 0.0055,4.455365 c 0.0046,4.026559 0.0018,4.469721 -0.02454,4.6045 -0.08113,0.407897 -0.252201,0.735221 -0.544017,1.04093 -0.288327,0.302053 -0.632971,0.495218 -1.073913,0.601895 -0.131225,0.03175 -0.369067,0.03386 -4.375625,0.03886 l -4.236864,0.0053 -2.747484,-3.107297 z m -8.579659,-8.49381 -3.075444,-2.762226 0.0046,-4.3062318 0.0046,-4.306232 0.04991,-0.1822664 C 12.560063,1.2983807 12.682746,1.0321685 12.80886,0.84835367 12.921486,0.68410503 13.181801,0.42450704 13.344398,0.31422158 13.514779,0.19866245 13.780835,0.07675409 13.98909,0.01882261 l 0.180903,-0.05032033 4.347869,-0.0054253 c 3.963051,-0.0049455 4.364242,-0.0027126 4.532846,0.02522567 0.90628,0.15018169 1.607812,0.89785333 1.710154,1.82264142 0.01346,0.1215046 0.01978,1.5090318 0.01978,4.3344276 l 0,4.1557133 -3.084023,2.770413 c -1.696226,1.523726 -3.088694,2.769779 -3.09439,2.769004 -0.0055,-7.73e-4 -1.394309,-1.244407 -3.0858,-2.76363 z"
   id="path4210"
   inkscape:connector-curvature="0" /></svg>